# xmcd CD database file
#
# Track frame offsets:
#	150
#	20897
#	39175
#	60202
#	77795
#	99730
#	117830
#	135382
#	153472
#	173907
#
# Disc length: 2561 seconds
#
# Revision: 0
# Processed by: cddbd v1.5.1PL0 Copyright (c) Steve Scherf et al.
# Submitted via: CDex 1.51
#
DISCID=7609ff0a
DTITLE=CHAGE&ASKA - INSIDE CHAGE and ASUKA ?(1984)[25th Anniversary BOX-1]
DYEAR=2004
DGENRE=JPop
TTITLE0=東京CARRY ON
TTITLE1=シナリオ
TTITLE2=涙・BOY
TTITLE3=RAINBOW
TTITLE4=MOON LIGHT BLUES
TTITLE5=TIME KEEP DANCER
TTITLE6=アルマジロ・ヴギ
TTITLE7=夢のかなた
TTITLE8=ゆら・ゆら
TTITLE9=B.G.M.
EXTD=YEAR: 2004
EXTT0=
EXTT1=
EXTT2=
EXTT3=
EXTT4=
EXTT5=
EXTT6=
EXTT7=
EXTT8=
EXTT9=
PLAYORDER=
